<?xml version="1.0" encoding="UTF-8"?><svg id="a" xmlns="http://www.w3.org/2000/svg" viewBox="0 0 400.85 149.2"><defs><style>.b{font-family:Arial-BoldMT, Arial;font-size:38.29px;font-weight:700;}.b,.c,.d,.e{fill:#fff;}.d{stroke:#fff;stroke-miterlimit:10;stroke-width:3px;}.e{font-family:Arial-Black, Arial;font-size:122.27px;font-weight:800;}.f{letter-spacing:0em;}.g{letter-spacing:.02em;}.h{letter-spacing:-.04em;}</style></defs><text class="e" transform="translate(120.7 104.9) scale(.93 1)"><tspan class="h" x="0" y="0">T</tspan><tspan class="g" x="83.05" y="0">r</tspan><tspan class="f" x="139.29" y="0">ee</tspan></text><text class="b" transform="translate(146.93 134.78) scale(.93 1)"><tspan x="0" y="0">Photography</tspan></text><circle class="c" cx="79.99" cy="39.03" r="30.96"/><ellipse class="c" cx="57.15" cy="74.4" rx="29.47" ry="24.17"/><ellipse class="c" cx="99.53" cy="74.4" rx="26.16" ry="24.17"/><path class="d" d="M76.68,141.5c0,.73.6,1.32,1.32,1.32s1.32-.6,1.32-1.32v-25.57l-2.65-2.65v28.21Z"/><path class="d" d="M79.33,112.52v-57.88c0-.73-.6-1.32-1.32-1.32s-1.32.6-1.32,1.32v56.77l1.94,1.94.71-.83Z"/><path class="d" d="M46.77,81.5c-.26-.26-.68-.26-.94,0s-.26.68,0,.94l30.85,30.85v-1.87l-29.91-29.91Z"/><path class="d" d="M79.33,115.93l2.09,2.09c.26.26.68.26.94,0,.26-.26.26-.68,0-.94l-2.8-2.8-.23.27v1.37Z"/><path class="d" d="M111.79,75.55c-.28-.24-.7-.2-.93.07l-31.53,36.9v1.54l.23.23,32.3-37.81c.24-.28.2-.7-.07-.93Z"/><path class="d" d="M78.17,113.89c-.24.28-.2.7.07.93.28.24.7.2.93-.07l.16-.19v-.5l-.71-.71-.46.54Z"/></svg>